<svg width="21" height="20" viewBox="0 0 21 20" fill="none" xmlns="http://www.w3.org/2000/svg">
<g clip-path="url(#clip0_186_1024)">
<path d="M20.0218 16.9023C19.851 17.2483 19.6268 17.5681 19.3567 17.8511C18.9162 18.3277 18.3677 18.7031 17.7526 18.9488C17.1479 19.1863 16.4995 19.3064 15.8453 19.3023C14.7451 19.2829 13.6604 19.0519 12.6567 18.6232C11.4655 18.1322 10.3367 17.5143 9.29196 16.7814C8.1555 15.9908 7.08309 15.1201 6.08376 14.1767C5.09467 13.2297 4.18242 12.2129 3.35484 11.1349C2.59475 10.148 1.95181 9.08414 1.43774 7.96276C0.991321 7.00385 0.751844 5.96946 0.733506 4.9209C0.7293 4.30656 0.848825 3.69714 1.08562 3.12555C1.3344 2.5346 1.71868 2.00388 2.21045 1.57206C2.4708 1.30427 2.78501 1.08889 3.13447 0.938693C3.48393 0.788493 3.86154 0.706526 4.24492 0.697646C4.51883 0.696613 4.78952 0.753822 5.03719 0.865087C5.30138 0.978816 5.52796 1.15892 5.69252 1.38602L7.96173 4.42788C8.11867 4.62951 8.24999 4.84808 8.35297 5.07904C8.43792 5.25762 8.48448 5.45055 8.48991 5.64648C8.48714 5.88049 8.41602 6.10916 8.28451 6.30695C8.13366 6.54932 7.94945 6.77143 7.73677 6.96741L6.9934 7.7023C6.94162 7.75062 6.90097 7.80864 6.87403 7.8727C6.84709 7.93676 6.83445 8.00544 6.83691 8.07439C6.83703 8.14661 6.84689 8.21851 6.86625 8.28834C6.89559 8.36276 6.92494 8.41858 6.9445 8.47439C7.20715 8.89793 7.51175 9.29664 7.85414 9.66509C8.29429 10.1488 8.76378 10.6418 9.2724 11.1349C9.80058 11.6279 10.3092 12.0837 10.8276 12.5023C11.216 12.8282 11.6388 13.115 12.0894 13.3581C12.1383 13.3767 12.1969 13.4046 12.2654 13.4325C12.3438 13.4592 12.4267 13.4718 12.5099 13.4697C12.5847 13.4713 12.6589 13.4581 12.728 13.4308C12.797 13.4036 12.8593 13.363 12.911 13.3116L13.6543 12.6139C13.8605 12.4079 14.0978 12.2323 14.3586 12.093C14.566 11.9668 14.8068 11.899 15.053 11.8976C15.2583 11.9003 15.4611 11.9414 15.6497 12.0186C15.8905 12.1166 16.1199 12.2382 16.3343 12.3814L19.5719 14.5674C19.8068 14.7135 19.9933 14.9199 20.1098 15.1628C20.2113 15.3926 20.2645 15.6391 20.2663 15.8883C20.2649 16.2394 20.1814 16.5857 20.0218 16.9023V16.9023Z" stroke="#282828" stroke-width="1.5" stroke-miterlimit="10"/>
</g>
<defs>
<clipPath id="clip0_186_1024">
<rect width="21" height="20" fill="white"/>
</clipPath>
</defs>
</svg>
