<svg width="119" height="17" viewBox="0 0 119 17" fill="none" xmlns="http://www.w3.org/2000/svg">
<path d="M7.6537 0.571035L5.56064 4.81544L0.877108 5.49999C0.68789 5.52774 0.510195 5.60783 0.364075 5.73121C0.217956 5.85459 0.109228 6.01636 0.0501622 6.19825C-0.00890384 6.38014 -0.0159572 6.57492 0.0297979 6.76061C0.0755531 6.9463 0.172295 7.11551 0.309108 7.24913L3.69741 10.5512L2.8963 15.2159C2.86411 15.4044 2.88527 15.5981 2.95739 15.7752C3.0295 15.9523 3.1497 16.1056 3.30441 16.218C3.45912 16.3304 3.64216 16.3972 3.83286 16.411C4.02357 16.4248 4.21433 16.385 4.3836 16.2961L8.56972 14.0939L12.7558 16.2961C12.9251 16.3847 13.1158 16.4242 13.3064 16.4103C13.4969 16.3963 13.6798 16.3294 13.8344 16.2172C13.989 16.1049 14.1092 15.9517 14.1814 15.7748C14.2536 15.5978 14.275 15.4043 14.2432 15.2159L13.442 10.5512L16.8303 7.24913C16.967 7.1161 17.0639 6.94761 17.1101 6.76258C17.1563 6.57755 17.15 6.3833 17.092 6.20164C17.0339 6.01998 16.9264 5.85809 16.7814 5.73415C16.6365 5.61021 16.4598 5.52912 16.2714 5.49999L11.5878 4.81708L9.49395 0.571035C9.40902 0.399576 9.27787 0.255259 9.11529 0.154361C8.95271 0.0534637 8.76517 0 8.57383 0C8.38248 0 8.19495 0.0534637 8.03237 0.154361C7.86979 0.255259 7.73864 0.399576 7.6537 0.571035Z" fill="#EFD632"/>
<path d="M33.0988 0.571035L31.0057 4.81544L26.3222 5.49999C26.133 5.52774 25.9553 5.60783 25.8091 5.73121C25.663 5.85459 25.5543 6.01636 25.4952 6.19825C25.4362 6.38014 25.4291 6.57492 25.4749 6.76061C25.5206 6.9463 25.6174 7.11551 25.7542 7.24913L29.1425 10.5512L28.3414 15.2159C28.3092 15.4044 28.3303 15.5981 28.4024 15.7752C28.4746 15.9523 28.5948 16.1056 28.7495 16.218C28.9042 16.3304 29.0872 16.3972 29.2779 16.411C29.4686 16.4248 29.6594 16.385 29.8287 16.2961L34.0148 14.0939L38.2009 16.2961C38.3702 16.3847 38.5609 16.4242 38.7514 16.4103C38.942 16.3963 39.1249 16.3294 39.2795 16.2172C39.4341 16.1049 39.5543 15.9517 39.6265 15.7748C39.6987 15.5978 39.7201 15.4043 39.6882 15.2159L38.8871 10.5512L42.2754 7.24913C42.4121 7.1161 42.5089 6.94761 42.5551 6.76258C42.6014 6.57755 42.5951 6.3833 42.537 6.20164C42.479 6.01998 42.3714 5.85809 42.2265 5.73415C42.0815 5.61021 41.9049 5.52912 41.7164 5.49999L37.0329 4.81708L34.939 0.571035C34.8541 0.399576 34.7229 0.255259 34.5603 0.154361C34.3978 0.0534637 34.2102 0 34.0189 0C33.8275 0 33.64 0.0534637 33.4774 0.154361C33.3149 0.255259 33.1837 0.399576 33.0988 0.571035Z" fill="#EFD632"/>
<path d="M58.5438 0.571035L56.4508 4.81544L51.7672 5.49999C51.578 5.52774 51.4003 5.60783 51.2542 5.73121C51.1081 5.85459 50.9994 6.01636 50.9403 6.19825C50.8812 6.38014 50.8742 6.57492 50.9199 6.76061C50.9657 6.9463 51.0624 7.11551 51.1992 7.24913L54.5875 10.5512L53.7864 15.2159C53.7542 15.4044 53.7754 15.5981 53.8475 15.7752C53.9196 15.9523 54.0398 16.1056 54.1945 16.218C54.3492 16.3304 54.5323 16.3972 54.723 16.411C54.9137 16.4248 55.1045 16.385 55.2737 16.2961L59.4598 14.0939L63.646 16.2961C63.8153 16.3847 64.0059 16.4242 64.1965 16.4103C64.3871 16.3963 64.57 16.3294 64.7246 16.2172C64.8792 16.1049 64.9993 15.9517 65.0715 15.7748C65.1438 15.5978 65.1651 15.4043 65.1333 15.2159L64.3322 10.5512L67.7205 7.24913C67.8571 7.1161 67.954 6.94761 68.0002 6.76258C68.0464 6.57755 68.0401 6.3833 67.9821 6.20164C67.924 6.01998 67.8165 5.85809 67.6715 5.73415C67.5266 5.61021 67.35 5.52912 67.1615 5.49999L62.478 4.81708L60.3841 0.571035C60.2991 0.399576 60.168 0.255259 60.0054 0.154361C59.8428 0.0534637 59.6553 0 59.464 0C59.2726 0 59.0851 0.0534637 58.9225 0.154361C58.7599 0.255259 58.6288 0.399576 58.5438 0.571035Z" fill="#EFD632"/>
<path d="M83.9889 0.571035L81.8958 4.81544L77.2123 5.49999C77.0231 5.52774 76.8454 5.60783 76.6992 5.73121C76.5531 5.85459 76.4444 6.01636 76.3853 6.19825C76.3263 6.38014 76.3192 6.57492 76.365 6.76061C76.4107 6.9463 76.5075 7.11551 76.6443 7.24913L80.0326 10.5512L79.2315 15.2159C79.1993 15.4044 79.2204 15.5981 79.2926 15.7752C79.3647 15.9523 79.4849 16.1056 79.6396 16.218C79.7943 16.3304 79.9773 16.3972 80.168 16.411C80.3587 16.4248 80.5495 16.385 80.7188 16.2961L84.9049 14.0939L89.091 16.2961C89.2603 16.3847 89.451 16.4242 89.6416 16.4103C89.8321 16.3963 90.015 16.3294 90.1696 16.2172C90.3242 16.1049 90.4444 15.9517 90.5166 15.7748C90.5888 15.5978 90.6102 15.4043 90.5783 15.2159L89.7772 10.5512L93.1655 7.24913C93.3022 7.1161 93.399 6.94761 93.4453 6.76258C93.4915 6.57755 93.4852 6.3833 93.4271 6.20164C93.3691 6.01998 93.2615 5.85809 93.1166 5.73415C92.9716 5.61021 92.795 5.52912 92.6065 5.49999L87.923 4.81708L85.8291 0.571035C85.7442 0.399576 85.613 0.255259 85.4505 0.154361C85.2879 0.0534637 85.1003 0 84.909 0C84.7177 0 84.5301 0.0534637 84.3675 0.154361C84.205 0.255259 84.0738 0.399576 83.9889 0.571035Z" fill="#EFD632"/>
<path d="M109.434 0.571035L107.341 4.81544L102.657 5.49999C102.468 5.52774 102.29 5.60783 102.144 5.73121C101.998 5.85459 101.889 6.01636 101.83 6.19825C101.771 6.38014 101.764 6.57492 101.81 6.76061C101.856 6.9463 101.953 7.11551 102.089 7.24913L105.478 10.5512L104.677 15.2159C104.644 15.4044 104.666 15.5981 104.738 15.7752C104.81 15.9523 104.93 16.1056 105.085 16.218C105.239 16.3304 105.422 16.3972 105.613 16.411C105.804 16.4248 105.995 16.385 106.164 16.2961L110.35 14.0939L114.536 16.2961C114.705 16.3847 114.896 16.4242 115.087 16.4103C115.277 16.3963 115.46 16.3294 115.615 16.2172C115.769 16.1049 115.889 15.9517 115.962 15.7748C116.034 15.5978 116.055 15.4043 116.023 15.2159L115.222 10.5512L118.611 7.24913C118.747 7.1161 118.844 6.94761 118.89 6.76258C118.937 6.57755 118.93 6.3833 118.872 6.20164C118.814 6.01998 118.707 5.85809 118.562 5.73415C118.417 5.61021 118.24 5.52912 118.052 5.49999L113.368 4.81708L111.274 0.571035C111.189 0.399576 111.058 0.255259 110.896 0.154361C110.733 0.0534637 110.545 0 110.354 0C110.163 0 109.975 0.0534637 109.813 0.154361C109.65 0.255259 109.519 0.399576 109.434 0.571035Z" fill="#EFD632"/>
</svg>
