<svg width="165" height="58" viewBox="0 0 165 58" fill="none" xmlns="http://www.w3.org/2000/svg">
<g clip-path="url(#clip0_398_5727)">
<path d="M95.4563 30.3086H90.5378V7.15465H81.7365V2.65063H104.258V7.15465H95.4563V30.3086Z" fill="white"/>
<path d="M105.332 25.5068C106.444 26.4248 107.853 26.9093 109.297 26.8704C110.363 26.8965 111.42 26.6798 112.389 26.2366C113.341 25.7565 114.211 25.1294 114.967 24.3783L117.78 26.8704C116.788 28.0476 115.57 29.0142 114.196 29.7131C112.647 30.461 110.94 30.8282 109.22 30.7838C107.773 30.7952 106.338 30.5261 104.995 29.9916C103.714 29.486 102.549 28.726 101.572 27.7577C100.594 26.7894 99.825 25.6331 99.3102 24.3591C98.7394 22.9468 98.4561 21.4353 98.4768 19.9128C98.4682 18.47 98.7245 17.0379 99.2331 15.6872C99.7093 14.4093 100.429 13.2353 101.353 12.23C102.265 11.2424 103.364 10.443 104.585 9.87715C105.878 9.28612 107.287 8.98923 108.709 9.00803C110.219 8.9748 111.716 9.28518 113.088 9.91556C114.301 10.49 115.371 11.3266 116.219 12.3644C117.074 13.4307 117.714 14.6521 118.103 15.9609C118.532 17.3614 118.746 18.8183 118.739 20.2825C118.739 20.4938 118.739 20.705 118.739 20.9163C118.739 21.1276 118.705 21.3533 118.676 21.5885H103.294C103.478 23.0967 104.201 24.4881 105.332 25.5068ZM113.974 18.4146C113.903 17.6758 113.729 16.9503 113.459 16.2586C113.213 15.6185 112.85 15.0292 112.389 14.5204C111.936 14.0313 111.391 13.635 110.785 13.3536C110.117 13.0558 109.392 12.9083 108.661 12.9214C107.976 12.9009 107.295 13.026 106.663 13.2884C106.031 13.5509 105.462 13.9447 104.995 14.4436C103.992 15.5429 103.374 16.9359 103.232 18.4146H113.974Z" fill="white"/>
<path d="M138.331 29.694C136.772 30.4745 135.04 30.8494 133.297 30.7839C131.809 30.7989 130.333 30.5096 128.961 29.934C127.67 29.3898 126.5 28.5967 125.517 27.6004C123.509 25.5617 122.395 22.8125 122.419 19.9561C122.399 17.0819 123.511 14.3146 125.517 12.2493C126.531 11.2119 127.745 10.3899 129.086 9.83287C130.427 9.27583 131.868 8.99528 133.321 9.00813C135.022 8.94988 136.713 9.28861 138.259 9.9973C139.555 10.6453 140.719 11.5297 141.689 12.6046L138.716 15.7978C138.019 15.0689 137.225 14.4388 136.356 13.9251C135.416 13.4092 134.355 13.1554 133.282 13.1904C132.449 13.1842 131.626 13.3664 130.874 13.7234C130.14 14.0689 129.485 14.5589 128.947 15.1639C128.407 15.7878 127.984 16.5035 127.699 17.2767C127.382 18.1032 127.219 18.9802 127.217 19.8648C127.218 20.77 127.381 21.6677 127.699 22.5154C127.985 23.3025 128.422 24.0266 128.985 24.6473C129.544 25.2546 130.219 25.7444 130.97 26.0879C131.848 26.4701 132.8 26.6509 133.758 26.6168C134.715 26.5827 135.652 26.3347 136.5 25.891C137.394 25.3774 138.214 24.7458 138.938 24.0135L141.828 26.8609C140.834 27.9984 139.651 28.9568 138.331 29.694V29.694Z" fill="white"/>
<path d="M151.044 30.3085H146.227V1.45972H151.044V12.7149C151.382 12.2157 151.759 11.7437 152.171 11.3032C152.6 10.8508 153.086 10.4554 153.617 10.1268C154.171 9.77485 154.771 9.49869 155.399 9.30573C156.111 9.09857 156.849 8.99822 157.591 9.00801C159.964 9.00801 161.796 9.73308 163.088 11.1832C164.379 12.6333 165.021 14.5828 165.014 17.0317V30.3085H160.197V18.4818C160.197 16.8492 159.81 15.5944 159.036 14.7173C158.623 14.2669 158.114 13.9142 157.546 13.685C156.978 13.4557 156.367 13.3556 155.755 13.392C155.129 13.3703 154.505 13.4805 153.923 13.7155C153.342 13.9505 152.818 14.3049 152.383 14.7557C151.523 15.6648 151.091 16.9325 151.087 18.5586L151.044 30.3085Z" fill="white"/>
<path d="M133.398 54.3363C134.497 54.3363 135.388 53.4485 135.388 52.3532C135.388 51.258 134.497 50.3701 133.398 50.3701C132.299 50.3701 131.408 51.258 131.408 52.3532C131.408 53.4485 132.299 54.3363 133.398 54.3363Z" fill="white"/>
<path d="M99.6619 54.0433L94.7289 47.4553H89.8682V54.0433H87.9412V37.0836H95.2588C96.1189 37.0734 96.9754 37.1965 97.7976 37.4485C98.5007 37.6655 99.155 38.0161 99.7245 38.4809C100.253 38.9149 100.678 39.4612 100.967 40.0799C101.263 40.7311 101.411 41.4394 101.401 42.1542C101.415 42.8103 101.301 43.4628 101.064 44.0749C100.843 44.6149 100.516 45.105 100.1 45.5154C99.672 45.9379 99.1752 46.2853 98.631 46.543C98.0479 46.8258 97.4262 47.0216 96.7859 47.124L102.013 54.0481L99.6619 54.0433ZM98.3468 39.7438C97.4043 39.0966 96.271 38.7837 95.1287 38.8554H89.8682V45.7603H95.1047C95.6997 45.7659 96.2923 45.6833 96.863 45.5154C97.3634 45.37 97.8334 45.1357 98.2504 44.824C98.6361 44.5283 98.949 44.149 99.1657 43.7148C99.3885 43.2538 99.5006 42.7475 99.4933 42.2358C99.5173 41.7592 99.4257 41.2838 99.2261 40.8499C99.0265 40.4161 98.7248 40.0366 98.3468 39.7438V39.7438Z" fill="white"/>
<path d="M106.589 50.2789C106.833 50.7819 107.172 51.2335 107.586 51.6089C107.984 51.9689 108.446 52.2493 108.95 52.4348C109.454 52.6218 109.987 52.7162 110.525 52.7133C111.303 52.7367 112.075 52.572 112.775 52.2332C113.413 51.9016 113.992 51.4686 114.49 50.9511L115.656 51.9883C115.045 52.685 114.312 53.2644 113.493 53.6977C112.555 54.1542 111.52 54.3752 110.477 54.3411C109.65 54.3419 108.831 54.1786 108.068 53.8609C107.319 53.5561 106.639 53.1037 106.069 52.5309C105.482 51.9372 105.019 51.2339 104.706 50.4613C104.372 49.6128 104.209 48.7075 104.224 47.7964C104.218 46.9234 104.37 46.0565 104.672 45.237C104.953 44.4695 105.378 43.7623 105.924 43.1531C106.466 42.5638 107.121 42.0901 107.851 41.7606C108.608 41.4193 109.43 41.2457 110.26 41.2516C111.116 41.2365 111.965 41.4154 112.741 41.775C113.452 42.1087 114.081 42.592 114.586 43.1915C115.101 43.8134 115.488 44.5295 115.728 45.2995C115.993 46.1382 116.125 47.0131 116.118 47.8924V48.1565C116.125 48.262 116.125 48.3679 116.118 48.4734H106.103C106.154 49.0996 106.319 49.7112 106.589 50.2789V50.2789ZM114.148 47.0905C114.102 46.5365 113.984 45.9909 113.796 45.4675C113.626 44.9723 113.364 44.5131 113.025 44.1134C112.677 43.6977 112.238 43.3659 111.743 43.1431C111.247 42.9202 110.707 42.812 110.164 42.8266C109.638 42.8224 109.119 42.9339 108.641 43.1531C108.177 43.3718 107.759 43.6765 107.408 44.051C107.042 44.4447 106.748 44.8999 106.541 45.3955C106.31 45.9351 106.162 46.5066 106.103 47.0905H114.148Z" fill="white"/>
<path d="M119.399 38.7836V36.7236H121.538V38.7836H119.399ZM119.519 54.0434V41.5206H121.393V54.0434H119.519Z" fill="white"/>
<path d="M132.28 41.5685V43.1675H128.32V54.0433H126.447V43.1675H124.722V41.5445H126.447V40.4545C126.447 39.0812 126.776 38.0392 127.434 37.3286C127.798 36.9613 128.236 36.6761 128.72 36.4922C129.204 36.3083 129.721 36.23 130.238 36.2626C130.616 36.2587 130.995 36.2827 131.37 36.3346C131.689 36.3834 132.002 36.4655 132.304 36.5795V38.2025C132 38.1098 131.692 38.0329 131.38 37.972C131.085 37.9123 130.784 37.8833 130.483 37.8856C129.022 37.8856 128.293 38.7739 128.296 40.5505V41.5685H132.28Z" fill="white"/>
<path d="M69.9242 0.628906H30.9035C30.1461 0.631647 29.3925 0.736636 28.6634 0.941015H28.9765C29.0758 0.941039 29.1745 0.953961 29.2704 0.979437C29.5298 1.05404 29.7574 1.21139 29.9184 1.42737C30.0794 1.64335 30.1648 1.90602 30.1616 2.17506V8.59496C30.1668 8.91519 30.0455 9.22462 29.8237 9.45641C29.602 9.6882 29.2977 9.82375 28.9765 9.8338H22.8007C22.6896 9.83104 22.5794 9.81328 22.4731 9.78099V14.4243C22.6984 14.4318 22.9118 14.527 23.0676 14.6894C23.2234 14.8519 23.3091 15.0687 23.3065 15.2934V19.807C23.3104 20.0325 23.2252 20.2505 23.0693 20.414C22.9134 20.5775 22.6993 20.6734 22.4731 20.6809V29.5401L22.8344 29.8954H29.7329C30.0915 29.9054 30.4318 30.0555 30.6805 30.3133C30.9292 30.5711 31.0664 30.9159 31.0625 31.2735V38.4329C31.0677 38.7908 30.9309 39.1364 30.6819 39.3944C30.433 39.6524 30.0919 39.8021 29.7329 39.811H22.9211L22.4731 40.2575V48.4204C22.4743 49.522 22.6935 50.6125 23.118 51.6296C23.5426 52.6466 24.1641 53.5702 24.9472 54.3476C25.7302 55.1249 26.6593 55.7408 27.6814 56.1599C28.7034 56.5789 29.7983 56.793 30.9035 56.7898H69.9242C72.1537 56.7898 74.2919 55.9071 75.8684 54.3357C77.4449 52.7643 78.3305 50.6331 78.3305 48.4108V9.01271C78.3305 6.79002 77.445 4.65829 75.8687 3.08615C74.2923 1.51402 72.1542 0.630179 69.9242 0.628906Z" fill="white"/>
<path fill-rule="evenodd" clip-rule="evenodd" d="M4.23443 6.44873H1.11275C0.950046 6.45251 0.795443 6.52026 0.682642 6.63719C0.569841 6.75412 0.507989 6.91075 0.510576 7.07295V10.3189C0.507989 10.4811 0.569841 10.6378 0.682642 10.7547C0.795443 10.8716 0.950046 10.9394 1.11275 10.9432H4.23443C4.39713 10.9394 4.55173 10.8716 4.66454 10.7547C4.77734 10.6378 4.83919 10.4811 4.8366 10.3189V7.07295C4.83919 6.91075 4.77734 6.75412 4.66454 6.63719C4.55173 6.52026 4.39713 6.45251 4.23443 6.44873Z" fill="white"/>
<path fill-rule="evenodd" clip-rule="evenodd" d="M13.9993 32.5173H10.8776C10.7149 32.5211 10.5603 32.5888 10.4475 32.7058C10.3347 32.8227 10.2729 32.9794 10.2754 33.1416V36.3875C10.2735 36.468 10.2876 36.5481 10.3169 36.6231C10.3462 36.6981 10.3901 36.7666 10.4461 36.8247C10.502 36.8827 10.569 36.9291 10.6431 36.9612C10.7171 36.9933 10.7969 37.0105 10.8776 37.0117H13.9993C14.0802 37.0105 14.1602 36.9934 14.2345 36.9613C14.3089 36.9293 14.3761 36.8829 14.4325 36.825C14.4889 36.767 14.5332 36.6985 14.563 36.6235C14.5929 36.5484 14.6075 36.4682 14.6063 36.3875V33.1416C14.6076 32.9789 14.5446 32.8223 14.4311 32.7055C14.3175 32.5887 14.1624 32.5211 13.9993 32.5173V32.5173Z" fill="white"/>
<path fill-rule="evenodd" clip-rule="evenodd" d="M13.0792 52.7229H8.88806C8.67041 52.7178 8.46363 52.6271 8.31288 52.4705C8.16213 52.314 8.07969 52.1043 8.08357 51.8874V47.5418C8.07969 47.3248 8.16213 47.1152 8.31288 46.9586C8.46363 46.802 8.67041 46.7113 8.88806 46.7063H13.0792C13.2968 46.7113 13.5036 46.802 13.6544 46.9586C13.8051 47.1152 13.8876 47.3248 13.8837 47.5418V51.8874C13.8876 52.1043 13.8051 52.314 13.6544 52.4705C13.5036 52.6271 13.2968 52.7178 13.0792 52.7229V52.7229Z" fill="white"/>
<path fill-rule="evenodd" clip-rule="evenodd" d="M20.787 57.0445H18.0218C17.9503 57.0433 17.8798 57.028 17.8142 56.9995C17.7486 56.9711 17.6893 56.9301 17.6397 56.8788C17.59 56.8275 17.551 56.767 17.5248 56.7007C17.4986 56.6344 17.4858 56.5636 17.4871 56.4923V53.6113C17.4858 53.4677 17.5411 53.3294 17.6411 53.2261C17.7411 53.1228 17.8778 53.0629 18.0218 53.0591H20.787C20.931 53.0629 21.0677 53.1228 21.1677 53.2261C21.2677 53.3294 21.323 53.4677 21.3217 53.6113V56.4923C21.323 56.5636 21.3102 56.6344 21.284 56.7007C21.2578 56.767 21.2188 56.8275 21.1691 56.8788C21.1194 56.9301 21.0601 56.9711 20.9946 56.9995C20.929 57.028 20.8585 57.0433 20.787 57.0445V57.0445Z" fill="white"/>
<path fill-rule="evenodd" clip-rule="evenodd" d="M21.5963 20.4312H17.2173C16.989 20.4249 16.7724 20.3291 16.6146 20.1646C16.4567 20.0001 16.3704 19.7801 16.3743 19.5525V15.0101C16.3704 14.7824 16.4567 14.5625 16.6146 14.398C16.7724 14.2334 16.989 14.1376 17.2173 14.1313H21.5963C21.8246 14.1376 22.0412 14.2334 22.199 14.398C22.3569 14.5625 22.4432 14.7824 22.4393 15.0101V19.5525C22.4432 19.7801 22.3569 20.0001 22.199 20.1646C22.0412 20.3291 21.8246 20.4249 21.5963 20.4312V20.4312Z" fill="white"/>
<path fill-rule="evenodd" clip-rule="evenodd" d="M3.29989 32.7332H0.553975C0.40916 32.7295 0.271715 32.6688 0.17156 32.5645C0.0714058 32.4602 0.0166619 32.3206 0.019253 32.1762V29.2952C0.0229085 29.155 0.0804109 29.0215 0.179911 28.9224C0.27941 28.8232 0.413309 28.7659 0.553975 28.7622H3.31915C3.46396 28.766 3.60141 28.8266 3.70156 28.931C3.80171 29.0353 3.85646 29.1748 3.85387 29.3192V32.2002C3.85646 32.3446 3.80171 32.4842 3.70156 32.5885C3.60141 32.6928 3.46396 32.7535 3.31915 32.7572L3.29989 32.7332Z" fill="white"/>
<path fill-rule="evenodd" clip-rule="evenodd" d="M24.9925 9.03203H27.6517C27.975 9.02323 28.2818 8.88771 28.5054 8.65488C28.7291 8.42205 28.8516 8.1107 28.8464 7.78839V1.32526C28.8488 1.05516 28.7625 0.791704 28.6008 0.574994C28.439 0.358285 28.2106 0.200202 27.9504 0.124833C27.8529 0.0993687 27.7525 0.0864655 27.6517 0.0864258H21.4277C21.1048 0.0939881 20.7981 0.228457 20.5743 0.46052C20.3505 0.692583 20.2278 1.00342 20.2329 1.32526V7.78839C20.2278 8.1107 20.3503 8.42205 20.574 8.65488C20.7976 8.88771 21.1044 9.02323 21.4277 9.03203H24.9925Z" fill="white"/>
<path fill-rule="evenodd" clip-rule="evenodd" d="M21.4614 32.09V37.7417L19.8235 39.3934H16.8849C16.6915 39.3985 16.508 39.4796 16.3744 39.619C16.2408 39.7585 16.168 39.9449 16.1719 40.1377V43.9791C16.1693 44.171 16.2427 44.3563 16.3761 44.4947C16.5096 44.6331 16.6924 44.7135 16.8849 44.7186H20.5942C20.7868 44.7135 20.9695 44.6331 21.103 44.4947C21.2364 44.3563 21.3098 44.171 21.3072 43.9791V40.7187L22.7524 39.2782H28.832C29.1514 39.2694 29.4545 39.1354 29.6755 38.9053C29.8964 38.6751 30.0174 38.3674 30.0122 38.049V31.6627C30.0174 31.3442 29.8964 31.0365 29.6755 30.8064C29.4545 30.5762 29.1514 30.4422 28.832 30.4334H22.6416L21.0808 28.8921V24.9738C21.0834 24.8584 21.0631 24.7437 21.0211 24.6361C20.9792 24.5285 20.9164 24.4302 20.8363 24.3468C20.7562 24.2634 20.6604 24.1966 20.5544 24.1501C20.4484 24.1036 20.3343 24.0784 20.2185 24.0759H15.6998C15.5836 24.0778 15.4689 24.1026 15.3624 24.1488C15.2558 24.195 15.1595 24.2617 15.0789 24.3451C14.9983 24.4286 14.9351 24.5271 14.8928 24.635C14.8505 24.7429 14.8301 24.858 14.8327 24.9738V29.6651C14.8301 29.7812 14.8505 29.8966 14.8927 30.0047C14.9349 30.1129 14.9981 30.2117 15.0786 30.2956C15.1591 30.3794 15.2554 30.4466 15.362 30.4933C15.4686 30.54 15.5834 30.5654 15.6998 30.5679H19.9487L21.4614 32.09Z" fill="white"/>
<path fill-rule="evenodd" clip-rule="evenodd" d="M9.5769 12.9166L11.1715 11.3321V6.06937L9.5769 4.4944H7.06707C6.90521 4.48938 6.75182 4.4211 6.64005 4.3043C6.52828 4.18751 6.46711 4.03157 6.46972 3.87019V0.624218C6.4678 0.54413 6.48172 0.46445 6.51071 0.38973C6.53969 0.315009 6.58316 0.246709 6.63864 0.18874C6.69411 0.13077 6.76048 0.084275 6.83399 0.0518887C6.9075 0.0195024 6.98672 0.00186952 7.06707 0H10.1887C10.2695 0.00124514 10.3492 0.0184176 10.4233 0.0505259C10.4973 0.0826342 10.5643 0.129037 10.6203 0.187069C10.6762 0.245101 10.7201 0.313616 10.7494 0.388645C10.7787 0.463674 10.7928 0.543733 10.7909 0.624218V3.31318L12.5396 5.05621H17.4148H17.4822H17.5111H17.5352H17.5593H17.5834H17.6075V5.08021V5.10423V5.12824V5.15224V5.17626V5.20026V5.22907V5.25308V5.28189V5.3059V5.33471V5.36351V5.39232V5.44034V5.46915V10.751V10.7799V10.8279V10.8567V11.4761V11.5049V11.5337V11.5577V11.5818V11.6106V11.6346V11.6586V11.6826H17.5834H17.5593H17.5352H17.5111H12.5444L10.7957 13.4208V16.758C10.797 16.8381 10.7824 16.9176 10.7528 16.9921C10.7233 17.0666 10.6793 17.1345 10.6234 17.192C10.5674 17.2496 10.5007 17.2956 10.4269 17.3274C10.3532 17.3592 10.2739 17.3762 10.1935 17.3774H7.06707C6.90564 17.3737 6.75224 17.3064 6.64034 17.1904C6.52845 17.0743 6.46713 16.9189 6.46972 16.758V13.512C6.46711 13.3506 6.52828 13.1947 6.64005 13.0779C6.75182 12.9611 6.90521 12.8928 7.06707 12.8878L9.5769 12.9166Z" fill="white"/>
<path fill-rule="evenodd" clip-rule="evenodd" d="M9.73591 27.6244H5.54961C5.33197 27.6206 5.12469 27.5311 4.97305 27.3754C4.8214 27.2198 4.73772 27.0106 4.74029 26.7937V22.4433C4.73768 22.2255 4.82104 22.0153 4.97243 21.8581C5.12382 21.7009 5.3311 21.6093 5.54961 21.603H9.73591C9.95399 21.6093 10.1608 21.7011 10.3114 21.8584C10.462 22.0157 10.5443 22.2259 10.5404 22.4433V26.7937C10.543 27.0098 10.46 27.2183 10.3094 27.3738C10.1588 27.5293 9.95271 27.6193 9.73591 27.6244V27.6244Z" fill="white"/>
<path d="M47.114 35.4127V32.378C47.1149 32.1976 47.1845 32.0243 47.3089 31.8932C47.4332 31.7621 47.6029 31.6831 47.7836 31.6721C47.904 31.6721 48.0292 31.6721 48.1497 31.6721C51.6037 31.6721 55.0626 31.6721 58.5215 31.6721C59.1675 31.6843 59.8132 31.6312 60.4485 31.5137C61.4961 31.3522 62.4522 30.8253 63.1465 30.0269C63.8408 29.2284 64.2282 28.2102 64.2397 27.1537C64.3165 26.2169 64.2695 25.2741 64.1 24.3495C63.6713 22.1887 62.2983 20.9451 60.0727 20.7962C57.8471 20.6474 55.4721 20.5993 53.179 20.5993C50.0236 20.5753 46.8634 20.5993 43.5973 20.5993V43.1674C43.5973 43.3546 43.5226 43.5342 43.3898 43.6666C43.257 43.7989 43.0769 43.8733 42.8891 43.8733H39.3002C39.1157 43.8683 38.9405 43.7917 38.8118 43.6599C38.6832 43.528 38.6112 43.3514 38.6113 43.1674V20.5993H28.5189C28.3311 20.5993 28.1509 20.525 28.0181 20.3926C27.8853 20.2602 27.8107 20.0807 27.8107 19.8935V16.3306C27.8107 16.2379 27.829 16.1461 27.8646 16.0605C27.9002 15.9748 27.9524 15.897 28.0181 15.8315C28.0839 15.7659 28.1619 15.7139 28.2479 15.6785C28.3338 15.643 28.4259 15.6248 28.5189 15.6248H28.8416C38.971 15.6248 49.1035 15.6248 59.2393 15.6248C65.7861 15.6248 69.6063 20.1144 69.2787 26.5919C69.139 29.2905 68.3923 31.7537 66.2775 33.588C65.3634 34.2968 64.4114 34.9556 63.4256 35.5615L72.0198 43.5708L71.8897 43.9021C70.0784 43.9021 68.2574 43.8157 66.4509 43.9357C65.9334 43.9842 65.4122 43.8978 64.9383 43.6848C64.4645 43.4718 64.0544 43.1396 63.7483 42.7209C61.9177 40.6081 60.0052 38.5578 58.0879 36.517C57.7929 36.2606 57.4148 36.1191 57.0233 36.1185C54.0654 36.0897 51.1124 36.1185 48.1593 36.1185H47.8269C47.6387 36.1185 47.458 36.0443 47.3245 35.912C47.1909 35.7798 47.1152 35.6003 47.114 35.4127V35.4127Z" fill="url(#paint0_linear_398_5727)"/>
</g>
<defs>
<linearGradient id="paint0_linear_398_5727" x1="24.4999" y1="15.4999" x2="75.9999" y2="51.4999" gradientUnits="userSpaceOnUse">
<stop stop-color="#239AC0"/>
<stop offset="1" stop-color="#0F7AD3"/>
</linearGradient>
<clipPath id="clip0_398_5727">
<rect width="165" height="58" fill="white"/>
</clipPath>
</defs>
</svg>
