<svg width="165" height="58" viewBox="0 0 165 58" fill="none" xmlns="http://www.w3.org/2000/svg">
<g clip-path="url(#clip0_144_24970)">
<path d="M95.4563 30.3084H90.5378V7.15453H81.7365V2.65051H104.258V7.15453H95.4563V30.3084Z" fill="#282828"/>
<path d="M105.332 25.5068C106.444 26.4248 107.853 26.9093 109.297 26.8704C110.363 26.8965 111.42 26.6798 112.389 26.2366C113.342 25.7565 114.211 25.1294 114.967 24.3783L117.78 26.8704C116.788 28.0476 115.57 29.0142 114.196 29.7131C112.647 30.461 110.94 30.8282 109.22 30.7838C107.773 30.7952 106.338 30.5261 104.995 29.9916C103.714 29.486 102.549 28.726 101.572 27.7577C100.594 26.7894 99.8251 25.6331 99.3103 24.3591C98.7394 22.9468 98.4561 21.4353 98.4769 19.9128C98.4682 18.47 98.7245 17.0379 99.2332 15.6872C99.7093 14.4093 100.429 13.2353 101.353 12.23C102.265 11.2424 103.364 10.443 104.585 9.87715C105.878 9.28612 107.287 8.98923 108.709 9.00803C110.219 8.9748 111.717 9.28518 113.088 9.91556C114.301 10.49 115.371 11.3266 116.219 12.3644C117.074 13.4307 117.714 14.6521 118.103 15.9609C118.532 17.3614 118.746 18.8183 118.739 20.2825C118.739 20.4938 118.739 20.705 118.739 20.9163C118.739 21.1276 118.705 21.3533 118.676 21.5885H103.294C103.478 23.0967 104.201 24.4881 105.332 25.5068ZM113.974 18.4146C113.903 17.6758 113.729 16.9503 113.459 16.2586C113.213 15.6185 112.85 15.0292 112.389 14.5204C111.936 14.0313 111.391 13.635 110.785 13.3536C110.118 13.0558 109.392 12.9083 108.661 12.9214C107.976 12.9009 107.295 13.026 106.663 13.2884C106.031 13.5509 105.462 13.9447 104.995 14.4436C103.992 15.5429 103.374 16.9359 103.232 18.4146H113.974Z" fill="#282828"/>
<path d="M138.331 29.6938C136.772 30.4744 135.04 30.8493 133.297 30.7838C131.809 30.7988 130.333 30.5095 128.961 29.9339C127.67 29.3897 126.5 28.5966 125.517 27.6003C123.509 25.5616 122.395 22.8124 122.419 19.9559C122.399 17.0818 123.511 14.3145 125.517 12.2492C126.531 11.2118 127.745 10.3898 129.086 9.83275C130.427 9.27571 131.868 8.99515 133.321 9.00801C135.022 8.94975 136.713 9.28849 138.259 9.99718C139.555 10.6452 140.719 11.5295 141.689 12.6045L138.716 15.7977C138.019 15.0688 137.225 14.4387 136.356 13.925C135.416 13.409 134.355 13.1552 133.282 13.1903C132.449 13.1841 131.626 13.3663 130.874 13.7233C130.14 14.0688 129.485 14.5588 128.947 15.1638C128.407 15.7877 127.984 16.5034 127.699 17.2766C127.382 18.1031 127.219 18.98 127.217 19.8647C127.218 20.7698 127.381 21.6676 127.699 22.5153C127.985 23.3024 128.422 24.0265 128.985 24.6472C129.544 25.2545 130.219 25.7442 130.97 26.0877C131.848 26.47 132.8 26.6508 133.758 26.6167C134.715 26.5826 135.652 26.3346 136.5 25.8909C137.394 25.3772 138.214 24.7457 138.938 24.0134L141.828 26.8608C140.834 27.9983 139.651 28.9566 138.331 29.6938Z" fill="#282828"/>
<path d="M151.044 30.3085H146.227V1.45972H151.044V12.7149C151.382 12.2157 151.759 11.7437 152.171 11.3032C152.6 10.8508 153.086 10.4554 153.617 10.1268C154.171 9.77485 154.771 9.49869 155.399 9.30573C156.111 9.09857 156.849 8.99822 157.591 9.00801C159.964 9.00801 161.796 9.73308 163.088 11.1832C164.379 12.6333 165.021 14.5828 165.014 17.0317V30.3085H160.197V18.4818C160.197 16.8492 159.81 15.5944 159.036 14.7173C158.623 14.2669 158.114 13.9142 157.546 13.685C156.978 13.4557 156.367 13.3556 155.755 13.392C155.129 13.3703 154.505 13.4805 153.923 13.7155C153.342 13.9505 152.818 14.3049 152.383 14.7557C151.523 15.6648 151.091 16.9325 151.087 18.5586L151.044 30.3085Z" fill="#282828"/>
<path d="M133.398 54.3363C134.497 54.3363 135.388 53.4485 135.388 52.3532C135.388 51.258 134.497 50.3701 133.398 50.3701C132.299 50.3701 131.408 51.258 131.408 52.3532C131.408 53.4485 132.299 54.3363 133.398 54.3363Z" fill="#3F3F3F"/>
<path d="M99.6619 54.0434L94.729 47.4554H89.8682V54.0434H87.9413V37.0837H95.2589C96.119 37.0735 96.9755 37.1966 97.7976 37.4487C98.5008 37.6656 99.1551 38.0162 99.7246 38.481C100.253 38.915 100.678 39.4614 100.967 40.08C101.263 40.7312 101.411 41.4395 101.401 42.1543C101.415 42.8104 101.301 43.4629 101.064 44.075C100.843 44.6151 100.516 45.1051 100.1 45.5156C99.672 45.938 99.1753 46.2854 98.631 46.5431C98.0479 46.826 97.4263 47.0217 96.786 47.1241L102.013 54.0482L99.6619 54.0434ZM98.3468 39.7439C97.4043 39.0967 96.271 38.7838 95.1288 38.8556H89.8682V45.7604H95.1047C95.6998 45.766 96.2924 45.6835 96.8631 45.5156C97.3635 45.3701 97.8335 45.1358 98.2505 44.8241C98.6361 44.5284 98.9491 44.1491 99.1657 43.7149C99.3885 43.2539 99.5007 42.7476 99.4934 42.236C99.5174 41.7593 99.4257 41.2839 99.2261 40.85C99.0265 40.4162 98.7249 40.0367 98.3468 39.7439Z" fill="#3F3F3F"/>
<path d="M106.589 50.2789C106.833 50.7819 107.171 51.2335 107.586 51.6089C107.984 51.9689 108.446 52.2493 108.95 52.4348C109.454 52.6218 109.987 52.7162 110.525 52.7133C111.303 52.7367 112.075 52.572 112.775 52.2332C113.413 51.9016 113.992 51.4686 114.49 50.9511L115.656 51.9883C115.045 52.685 114.312 53.2644 113.493 53.6977C112.555 54.1542 111.52 54.3752 110.477 54.3411C109.65 54.3419 108.831 54.1786 108.068 53.8609C107.319 53.5561 106.639 53.1037 106.069 52.5309C105.482 51.9372 105.019 51.2339 104.706 50.4613C104.372 49.6128 104.209 48.7075 104.224 47.7964C104.218 46.9234 104.37 46.0565 104.672 45.237C104.953 44.4695 105.378 43.7623 105.924 43.1531C106.466 42.5638 107.121 42.0901 107.851 41.7606C108.608 41.4193 109.43 41.2457 110.26 41.2516C111.116 41.2365 111.965 41.4154 112.741 41.775C113.452 42.1087 114.081 42.592 114.586 43.1915C115.101 43.8134 115.488 44.5295 115.728 45.2995C115.993 46.1382 116.124 47.0131 116.118 47.8924V48.1565C116.124 48.262 116.124 48.3679 116.118 48.4734H106.103C106.154 49.0996 106.319 49.7112 106.589 50.2789ZM114.148 47.0905C114.102 46.5365 113.984 45.9909 113.796 45.4675C113.626 44.9723 113.364 44.5131 113.025 44.1134C112.677 43.6977 112.238 43.3659 111.743 43.1431C111.247 42.9202 110.707 42.812 110.164 42.8266C109.638 42.8224 109.119 42.9339 108.641 43.1531C108.177 43.3718 107.758 43.6765 107.408 44.051C107.042 44.4447 106.748 44.8999 106.541 45.3955C106.31 45.9351 106.162 46.5066 106.103 47.0905H114.148Z" fill="#3F3F3F"/>
<path d="M119.399 38.7835V36.7235H121.538V38.7835H119.399ZM119.519 54.0433V41.5204H121.393V54.0433H119.519Z" fill="#3F3F3F"/>
<path d="M132.28 41.5685V43.1675H128.32V54.0433H126.447V43.1675H124.722V41.5445H126.447V40.4545C126.447 39.0812 126.776 38.0392 127.434 37.3286C127.798 36.9613 128.236 36.6761 128.72 36.4922C129.204 36.3083 129.721 36.23 130.238 36.2626C130.616 36.2587 130.995 36.2827 131.37 36.3346C131.689 36.3834 132.002 36.4655 132.304 36.5795V38.2025C132 38.1098 131.692 38.0329 131.38 37.972C131.085 37.9123 130.784 37.8833 130.483 37.8856C129.022 37.8856 128.293 38.7739 128.296 40.5505V41.5685H132.28Z" fill="#3F3F3F"/>
<path d="M69.9242 0.629028H30.9035C30.1461 0.631769 29.3925 0.736758 28.6634 0.941137H28.9765C29.0758 0.941161 29.1745 0.954083 29.2704 0.979559C29.5298 1.05416 29.7574 1.21152 29.9184 1.42749C30.0794 1.64347 30.1648 1.90614 30.1616 2.17518V8.59508C30.1668 8.91531 30.0455 9.22474 29.8237 9.45653C29.602 9.68832 29.2977 9.82388 28.9765 9.83392H22.8007C22.6896 9.83116 22.5794 9.8134 22.4731 9.78111V14.4244C22.6984 14.4319 22.9118 14.5271 23.0676 14.6895C23.2234 14.852 23.3091 15.0688 23.3065 15.2935V19.8071C23.3104 20.0326 23.2252 20.2507 23.0693 20.4142C22.9134 20.5776 22.6993 20.6735 22.4731 20.681V29.5402L22.8344 29.8955H29.7329C30.0915 29.9056 30.4318 30.0557 30.6805 30.3134C30.9292 30.5712 31.0664 30.916 31.0625 31.2736V38.433C31.0677 38.791 30.9309 39.1365 30.6819 39.3945C30.433 39.6526 30.0919 39.8023 29.7329 39.8111H22.9211L22.4731 40.2576V48.4206C22.4743 49.5221 22.6935 50.6126 23.118 51.6297C23.5426 52.6467 24.1641 53.5704 24.9472 54.3477C25.7302 55.1251 26.6593 55.7409 27.6814 56.16C28.7034 56.579 29.7983 56.7931 30.9035 56.79H69.9242C72.1537 56.79 74.2919 55.9072 75.8684 54.3358C77.4449 52.7644 78.3305 50.6332 78.3305 48.411V9.01283C78.3305 6.79014 77.445 4.65841 75.8687 3.08628C74.2923 1.51415 72.1542 0.630301 69.9242 0.629028Z" fill="url(#paint0_linear_144_24970)"/>
<path fill-rule="evenodd" clip-rule="evenodd" d="M4.23443 6.44873H1.11275C0.950046 6.45251 0.795443 6.52026 0.682642 6.63719C0.569841 6.75412 0.507989 6.91075 0.510576 7.07295V10.3189C0.507989 10.4811 0.569841 10.6378 0.682642 10.7547C0.795443 10.8716 0.950046 10.9394 1.11275 10.9432H4.23443C4.39713 10.9394 4.55173 10.8716 4.66454 10.7547C4.77734 10.6378 4.83919 10.4811 4.8366 10.3189V7.07295C4.83919 6.91075 4.77734 6.75412 4.66454 6.63719C4.55173 6.52026 4.39713 6.45251 4.23443 6.44873Z" fill="url(#paint1_linear_144_24970)"/>
<path fill-rule="evenodd" clip-rule="evenodd" d="M13.9993 32.5172H10.8776C10.7149 32.521 10.5603 32.5887 10.4475 32.7057C10.3347 32.8226 10.2729 32.9792 10.2754 33.1414V36.3874C10.2735 36.4679 10.2876 36.5479 10.3169 36.623C10.3462 36.698 10.3901 36.7665 10.4461 36.8246C10.502 36.8826 10.569 36.929 10.6431 36.9611C10.7171 36.9932 10.7969 37.0104 10.8776 37.0116H13.9993C14.0802 37.0104 14.1602 36.9932 14.2345 36.9612C14.3089 36.9291 14.3761 36.8828 14.4325 36.8248C14.4889 36.7669 14.5332 36.6984 14.563 36.6233C14.5929 36.5483 14.6075 36.4681 14.6063 36.3874V33.1414C14.6076 32.9788 14.5446 32.8222 14.4311 32.7054C14.3175 32.5886 14.1624 32.521 13.9993 32.5172Z" fill="url(#paint2_linear_144_24970)"/>
<path fill-rule="evenodd" clip-rule="evenodd" d="M13.0792 52.7229H8.88806C8.67041 52.7178 8.46363 52.6271 8.31288 52.4705C8.16213 52.314 8.07969 52.1043 8.08357 51.8874V47.5418C8.07969 47.3248 8.16213 47.1152 8.31288 46.9586C8.46363 46.802 8.67041 46.7113 8.88806 46.7063H13.0792C13.2968 46.7113 13.5036 46.802 13.6544 46.9586C13.8051 47.1152 13.8876 47.3248 13.8837 47.5418V51.8874C13.8876 52.1043 13.8051 52.314 13.6544 52.4705C13.5036 52.6271 13.2968 52.7178 13.0792 52.7229Z" fill="url(#paint3_linear_144_24970)"/>
<path fill-rule="evenodd" clip-rule="evenodd" d="M20.787 57.0445H18.0218C17.9503 57.0433 17.8798 57.028 17.8142 56.9995C17.7486 56.9711 17.6893 56.9301 17.6397 56.8788C17.59 56.8275 17.551 56.767 17.5248 56.7007C17.4986 56.6344 17.4858 56.5636 17.4871 56.4923V53.6113C17.4858 53.4677 17.5411 53.3294 17.6411 53.2261C17.7411 53.1228 17.8778 53.0629 18.0218 53.0591H20.787C20.9309 53.0629 21.0677 53.1228 21.1677 53.2261C21.2677 53.3294 21.323 53.4677 21.3217 53.6113V56.4923C21.323 56.5636 21.3102 56.6344 21.284 56.7007C21.2578 56.767 21.2188 56.8275 21.1691 56.8788C21.1194 56.9301 21.0601 56.9711 20.9946 56.9995C20.929 57.028 20.8585 57.0433 20.787 57.0445Z" fill="url(#paint4_linear_144_24970)"/>
<path fill-rule="evenodd" clip-rule="evenodd" d="M21.5963 20.4313H17.2173C16.989 20.425 16.7724 20.3292 16.6146 20.1647C16.4567 20.0002 16.3704 19.7802 16.3743 19.5526V15.0102C16.3704 14.7826 16.4567 14.5626 16.6146 14.3981C16.7724 14.2336 16.989 14.1378 17.2173 14.1315H21.5963C21.8246 14.1378 22.0412 14.2336 22.199 14.3981C22.3569 14.5626 22.4432 14.7826 22.4393 15.0102V19.5526C22.4432 19.7802 22.3569 20.0002 22.199 20.1647C22.0412 20.3292 21.8246 20.425 21.5963 20.4313Z" fill="url(#paint5_linear_144_24970)"/>
<path fill-rule="evenodd" clip-rule="evenodd" d="M3.29989 32.7334H0.553975C0.40916 32.7296 0.271715 32.6689 0.17156 32.5646C0.0714058 32.4603 0.0166619 32.3207 0.019253 32.1764V29.2953C0.0229085 29.1551 0.0804109 29.0217 0.179911 28.9225C0.27941 28.8233 0.413309 28.766 0.553975 28.7623H3.31915C3.46396 28.7661 3.60141 28.8268 3.70156 28.9311C3.80171 29.0354 3.85646 29.175 3.85387 29.3193V32.2004C3.85646 32.3447 3.80171 32.4843 3.70156 32.5886C3.60141 32.6929 3.46396 32.7536 3.31915 32.7574L3.29989 32.7334Z" fill="url(#paint6_linear_144_24970)"/>
<path fill-rule="evenodd" clip-rule="evenodd" d="M24.9925 9.03203H27.6517C27.975 9.02323 28.2818 8.88771 28.5054 8.65488C28.7291 8.42205 28.8516 8.1107 28.8464 7.78839V1.32526C28.8488 1.05516 28.7625 0.791704 28.6008 0.574994C28.439 0.358285 28.2106 0.200202 27.9504 0.124833C27.8529 0.0993687 27.7525 0.0864655 27.6517 0.0864258H21.4277C21.1048 0.0939881 20.7981 0.228457 20.5743 0.46052C20.3505 0.692583 20.2278 1.00342 20.2329 1.32526V7.78839C20.2278 8.1107 20.3503 8.42205 20.574 8.65488C20.7976 8.88771 21.1044 9.02323 21.4277 9.03203H24.9925Z" fill="url(#paint7_linear_144_24970)"/>
<path fill-rule="evenodd" clip-rule="evenodd" d="M21.4614 32.0899V37.7415L19.8235 39.3933H16.8849C16.6915 39.3984 16.508 39.4795 16.3744 39.6189C16.2408 39.7584 16.168 39.9448 16.1719 40.1376V43.979C16.1693 44.1709 16.2427 44.3561 16.3761 44.4946C16.5096 44.633 16.6924 44.7134 16.8849 44.7184H20.5942C20.7868 44.7134 20.9695 44.633 21.103 44.4946C21.2364 44.3561 21.3098 44.1709 21.3072 43.979V40.7186L22.7524 39.2781H28.832C29.1514 39.2693 29.4545 39.1353 29.6755 38.9051C29.8964 38.675 30.0174 38.3673 30.0122 38.0488V31.6625C30.0174 31.3441 29.8964 31.0364 29.6755 30.8062C29.4545 30.5761 29.1514 30.4421 28.832 30.4333H22.6416L21.0808 28.8919V24.9737C21.0834 24.8583 21.0631 24.7436 21.0211 24.636C20.9792 24.5284 20.9164 24.4301 20.8363 24.3467C20.7562 24.2633 20.6604 24.1965 20.5544 24.15C20.4484 24.1035 20.3343 24.0783 20.2185 24.0758H15.6998C15.5836 24.0777 15.4689 24.1024 15.3624 24.1486C15.2558 24.1948 15.1595 24.2616 15.0789 24.345C14.9983 24.4285 14.9351 24.527 14.8928 24.6349C14.8505 24.7428 14.8301 24.8579 14.8327 24.9737V29.665C14.8301 29.7811 14.8505 29.8965 14.8927 30.0046C14.9349 30.1128 14.9981 30.2116 15.0786 30.2954C15.1591 30.3793 15.2554 30.4465 15.362 30.4932C15.4686 30.5399 15.5834 30.5653 15.6998 30.5677H19.9487L21.4614 32.0899Z" fill="url(#paint8_linear_144_24970)"/>
<path fill-rule="evenodd" clip-rule="evenodd" d="M9.5769 12.9166L11.1715 11.3321V6.06937L9.5769 4.4944H7.06707C6.90521 4.48938 6.75182 4.4211 6.64005 4.3043C6.52828 4.18751 6.46711 4.03157 6.46972 3.87019V0.624218C6.4678 0.54413 6.48172 0.46445 6.51071 0.38973C6.53969 0.315009 6.58316 0.246709 6.63864 0.18874C6.69411 0.13077 6.76048 0.084275 6.83399 0.0518887C6.9075 0.0195024 6.98672 0.00186952 7.06707 0H10.1887C10.2695 0.00124514 10.3492 0.0184176 10.4233 0.0505259C10.4973 0.0826342 10.5643 0.129037 10.6203 0.187069C10.6762 0.245101 10.7201 0.313616 10.7494 0.388645C10.7787 0.463674 10.7928 0.543733 10.7909 0.624218V3.31318L12.5396 5.05621H17.4148H17.4822H17.5111H17.5352H17.5593H17.5834H17.6075V5.08021V5.10423V5.12824V5.15224V5.17626V5.20026V5.22907V5.25308V5.28189V5.3059V5.33471V5.36351V5.39232V5.44034V5.46915V10.751V10.7799V10.8279V10.8567V11.4761V11.5049V11.5337V11.5577V11.5817V11.6106V11.6346V11.6586V11.6826H17.5834H17.5593H17.5352H17.5111H12.5444L10.7957 13.4208V16.758C10.797 16.8381 10.7824 16.9176 10.7528 16.9921C10.7233 17.0666 10.6793 17.1345 10.6234 17.192C10.5674 17.2496 10.5007 17.2956 10.4269 17.3274C10.3532 17.3592 10.2739 17.3762 10.1935 17.3774H7.06707C6.90564 17.3736 6.75224 17.3064 6.64034 17.1904C6.52845 17.0743 6.46713 16.9189 6.46972 16.758V13.512C6.46711 13.3506 6.52828 13.1947 6.64005 13.0779C6.75182 12.9611 6.90521 12.8928 7.06707 12.8878L9.5769 12.9166Z" fill="url(#paint9_linear_144_24970)"/>
<path fill-rule="evenodd" clip-rule="evenodd" d="M9.73591 27.6243H5.54961C5.33197 27.6205 5.12469 27.531 4.97305 27.3753C4.8214 27.2197 4.73772 27.0105 4.74029 26.7936V22.4432C4.73768 22.2253 4.82104 22.0152 4.97243 21.858C5.12382 21.7008 5.3311 21.6092 5.54961 21.6029H9.73591C9.95399 21.6092 10.1608 21.701 10.3114 21.8583C10.462 22.0156 10.5443 22.2258 10.5404 22.4432V26.7936C10.543 27.0097 10.46 27.2181 10.3094 27.3737C10.1588 27.5292 9.95271 27.6192 9.73591 27.6243Z" fill="url(#paint10_linear_144_24970)"/>
<path d="M47.114 35.4127V32.378C47.1149 32.1976 47.1845 32.0243 47.3089 31.8932C47.4332 31.7621 47.6029 31.6831 47.7836 31.6721C47.904 31.6721 48.0292 31.6721 48.1497 31.6721C51.6037 31.6721 55.0626 31.6721 58.5215 31.6721C59.1675 31.6843 59.8132 31.6312 60.4485 31.5137C61.4961 31.3522 62.4522 30.8253 63.1465 30.0269C63.8408 29.2284 64.2282 28.2102 64.2397 27.1537C64.3165 26.2169 64.2695 25.2741 64.1 24.3495C63.6713 22.1887 62.2983 20.9451 60.0727 20.7962C57.8471 20.6474 55.4721 20.5993 53.179 20.5993C50.0236 20.5753 46.8634 20.5993 43.5973 20.5993V43.1674C43.5973 43.3546 43.5226 43.5342 43.3898 43.6665C43.257 43.7989 43.0769 43.8733 42.8891 43.8733H39.3002C39.1157 43.8683 38.9405 43.7917 38.8118 43.6599C38.6832 43.528 38.6112 43.3514 38.6113 43.1674V20.5993H28.5189C28.3311 20.5993 28.1509 20.525 28.0181 20.3926C27.8853 20.2602 27.8107 20.0807 27.8107 19.8935V16.3306C27.8107 16.2379 27.829 16.1461 27.8646 16.0605C27.9002 15.9748 27.9524 15.897 28.0181 15.8315C28.0839 15.7659 28.1619 15.7139 28.2479 15.6785C28.3338 15.643 28.4259 15.6248 28.5189 15.6248H28.8416C38.971 15.6248 49.1035 15.6248 59.2393 15.6248C65.7861 15.6248 69.6063 20.1144 69.2787 26.5919C69.139 29.2905 68.3923 31.7537 66.2775 33.588C65.3634 34.2968 64.4114 34.9556 63.4256 35.5615L72.0198 43.5708L71.8897 43.9021C70.0784 43.9021 68.2574 43.8157 66.4509 43.9357C65.9334 43.9842 65.4122 43.8978 64.9383 43.6848C64.4645 43.4718 64.0544 43.1396 63.7483 42.7209C61.9177 40.6081 60.0052 38.5578 58.0879 36.517C57.7929 36.2606 57.4148 36.1191 57.0233 36.1185C54.0654 36.0897 51.1124 36.1185 48.1593 36.1185H47.8269C47.6387 36.1185 47.458 36.0443 47.3245 35.912C47.1909 35.7798 47.1152 35.6003 47.114 35.4127Z" fill="white"/>
</g>
<defs>
<linearGradient id="paint0_linear_144_24970" x1="-13.3682" y1="-25.4683" x2="74.6154" y2="49.7789" gradientUnits="userSpaceOnUse">
<stop stop-color="#43CEA2"/>
<stop offset="0.78" stop-color="#0F7AD3"/>
</linearGradient>
<linearGradient id="paint1_linear_144_24970" x1="73.4364" y1="11.3417" x2="-13.9745" y2="8.05037" gradientUnits="userSpaceOnUse">
<stop stop-color="#43CEA2"/>
<stop offset="0.78" stop-color="#32B2B2"/>
</linearGradient>
<linearGradient id="paint2_linear_144_24970" x1="4429.18" y1="1907.45" x2="3643.27" y2="1879.07" gradientUnits="userSpaceOnUse">
<stop stop-color="#43CEA2"/>
<stop offset="0.78" stop-color="#0F7AD3"/>
</linearGradient>
<linearGradient id="paint3_linear_144_24970" x1="5919.3" y1="2744.41" x2="4866.78" y2="2706.32" gradientUnits="userSpaceOnUse">
<stop stop-color="#43CEA2"/>
<stop offset="0.78" stop-color="#0F7AD3"/>
</linearGradient>
<linearGradient id="paint4_linear_144_24970" x1="3924.06" y1="1881.69" x2="3228.17" y2="1856.56" gradientUnits="userSpaceOnUse">
<stop stop-color="#43CEA2"/>
<stop offset="0.78" stop-color="#0F7AD3"/>
</linearGradient>
<linearGradient id="paint5_linear_144_24970" x1="6213.12" y1="2409.84" x2="5112.46" y2="2370.07" gradientUnits="userSpaceOnUse">
<stop stop-color="#43CEA2"/>
<stop offset="0.78" stop-color="#0F7AD3"/>
</linearGradient>
<linearGradient id="paint6_linear_144_24970" x1="3913.69" y1="1665.21" x2="3217.79" y2="1640.18" gradientUnits="userSpaceOnUse">
<stop stop-color="#43CEA2"/>
<stop offset="0.78" stop-color="#0F7AD3"/>
</linearGradient>
<linearGradient id="paint7_linear_144_24970" x1="8829.38" y1="3161.64" x2="7266.25" y2="3105.15" gradientUnits="userSpaceOnUse">
<stop stop-color="#43CEA2"/>
<stop offset="0.78" stop-color="#0F7AD3"/>
</linearGradient>
<linearGradient id="paint8_linear_144_24970" x1="15503.4" y1="8610.79" x2="12747.2" y2="8534.72" gradientUnits="userSpaceOnUse">
<stop stop-color="#43CEA2"/>
<stop offset="0.78" stop-color="#0F7AD3"/>
</linearGradient>
<linearGradient id="paint9_linear_144_24970" x1="11392.9" y1="6312.53" x2="9370.25" y2="6263.87" gradientUnits="userSpaceOnUse">
<stop stop-color="#43CEA2"/>
<stop offset="0.78" stop-color="#0F7AD3"/>
</linearGradient>
<linearGradient id="paint10_linear_144_24970" x1="5927.2" y1="2408.71" x2="4874.68" y2="2370.66" gradientUnits="userSpaceOnUse">
<stop stop-color="#43CEA2"/>
<stop offset="0.78" stop-color="#0F7AD3"/>
</linearGradient>
<clipPath id="clip0_144_24970">
<rect width="165" height="58" fill="white"/>
</clipPath>
</defs>
</svg>
